# xmcd
#
# Track frame offsets:
#	150
#	14242
#	28010
#	40561
#	56613
#	64697
#	80141
#	94203
#	109127
#	121701
#	134750
#	149104
#	163357
#	177705
#	192442
#
# Disc length: 2744 seconds
#
# Revision: 0
# Processed by: cddbd v1.5.2PL0 Copyright (c) Steve Scherf et al.
# Submitted via: audiograbber 1.83.01
#
DISCID=ea0ab60f
DTITLE=Various Artist - Volksmusik für deine Seele - CD 2
DYEAR=2007
DGENRE=Folk
TTITLE0=Geraldine Olivier - Champagner für's ganze Lokal
TTITLE1=Oliver Thomas - Rom oder Rhodos
TTITLE2=Marco - Walzer der Liebe
TTITLE3=Astrid Harzbecker - Sierra Madre
TTITLE4=Margot Hellwig - Kein schöner Land
TTITLE5=Stefanie Hertel  - Liebe stirbt nicht einfach so
TTITLE6=Maxi Arland - Solang's noch rote Rosen gibt
TTITLE7=Stefan Mross - Happy Volksmusik
TTITLE8=Lys Assia  - Schwedenmädel
TTITLE9=Astrid Harzbecker - Angelie delle montagne (Engel der Berge)
TTITLE10=Alexandre Malempre - Hal-le-lu-jah
TTITLE11=Bianca - Wo sind die Worte
TTITLE12=Oliver Thomas - Ich will
TTITLE13=Stefanie Hertel - Wo die Musikanten sind
TTITLE14=Geraldine Olivier - Melodien für euch
EXTD=
EXTT0=
EXTT1=
EXTT2=
EXTT3=
EXTT4=
EXTT5=
EXTT6=
EXTT7=
EXTT8=
EXTT9=
EXTT10=
EXTT11=
EXTT12=
EXTT13=
EXTT14=
PLAYORDER=
